<svg preserveAspectRatio="xMidYMid meet"
     focusable="false"
     width="0"
     height="0"
     visibility="hidden"
     style="
        visibility: hidden;
        position: absolute;
        pointer-events: none;
    "
     xmlns="http://www.w3.org/2000/svg"
>
    <symbol id="ignite-icon" viewBox="0 0 65 61" fill="currentColor" >
        <path opacity="0.5" d="M64.067 0.410504L48.388 55.9541C48.3082 56.2062 47.9893 56.2819 47.8033 56.1054L37.3064 46.1464L45.1724 18.3115C45.2522 18.0594 45.013 17.8325 44.7472 17.9081L15.4089 25.3711L4.96507 15.4625C4.77905 15.286 4.85878 14.9834 5.12452 14.9078L63.6418 0.00710022C63.9075 -0.0433252 64.1467 0.183589 64.067 0.410504Z" fill="#00B37E"/>
        <path opacity="0.5" d="M37.3058 46.1459L33.2665 60.5171C33.1868 60.7693 32.8679 60.8449 32.6818 60.6684L0.101381 29.7828C-0.0846408 29.6063 -0.00491742 29.3038 0.260829 29.2282L15.4084 25.3706L37.3058 46.1459Z" fill="#00B37E"/>
        <path d="M45.1711 18.311L37.305 46.1459L15.4076 25.3706L44.7459 17.9076C45.0117 17.832 45.2508 18.0589 45.1711 18.311Z" fill="#00B37E"/>
    </symbol>
    <symbol id="edit" viewBox="0 0 20 20" fill="none">
        <path d="M7.50001 16.875H3.75C3.58424 16.875 3.42527 16.8091 3.30806 16.6919C3.19085 16.5747 3.125 16.4158 3.125 16.25V12.7578C3.12472 12.6766 3.14044 12.5962 3.17128 12.5212C3.20211 12.4461 3.24745 12.3778 3.30469 12.3203L12.6797 2.94531C12.7379 2.88625 12.8072 2.83936 12.8836 2.80735C12.9601 2.77534 13.0421 2.75885 13.125 2.75885C13.2079 2.75885 13.2899 2.77534 13.3664 2.80735C13.4428 2.83936 13.5122 2.88625 13.5703 2.94531L17.0547 6.42968C17.1138 6.48784 17.1606 6.55716 17.1927 6.63361C17.2247 6.71006 17.2412 6.79211 17.2412 6.87499C17.2412 6.95787 17.2247 7.03993 17.1927 7.11638C17.1606 7.19283 17.1138 7.26215 17.0547 7.3203L7.50001 16.875ZM7.50001 16.875H16.875M10.625 4.99999L15 9.37499" stroke="currentColor" stroke-width="1.5" stroke-linecap="round" stroke-linejoin="round"/>
    </symbol>

</svg>